<svg id="Layer_1" data-name="Layer 1" xmlns="http://www.w3.org/2000/svg" viewBox="0 0 1054 284.667"><defs><style>.cls-1{fill:#fff;}</style></defs><title>DL light horizontal</title><path class="cls-1" d="M255.2,77.191h15.6c23.1,0,42.3,12.2,42.3,37.3,0,25.7-18.8,38.1-42.6,38.1H255.2Zm9.4,66.8h3.3c19.2,0,35.8-7.2,35.8-29.1,0-22-16.6-29.1-35.8-29.1h-3.3Z"/><path class="cls-1" d="M365.405,152.6h-9v-7.3h-.2c-3.6,5.3-9.2,8.9-15.9,8.9-14.3,0-22.4-11.9-22.4-25.3,0-12.8,8.5-24.5,22.1-24.5,6.9,0,12.5,3.6,16.2,9.2h.2v-7.8h9Zm-8.5-23.4c0-9.1-5.5-16.8-15.2-16.8-9.3,0-14.8,8.1-14.8,16.8,0,8.8,5.3,17,14.8,17C351.5,146.2,356.9,138.394,356.9,129.194Z"/><path class="cls-1" d="M393.1,135.594l13.8-32.4,13.7,32.4,13.6-29.8h10.2l-23.8,48.4-13.7-31.3-13.8,31.3-23.8-48.4h10.2Z"/><path class="cls-1" d="M461.6,84.391a6.2,6.2,0,0,1-12.4,0,6.2,6.2,0,1,1,12.4,0Zm-1.7,68.2h-9v-46.8h9Z"/><path class="cls-1" d="M507.2,145.294H507c-3.6,5.3-9.3,8.9-15.9,8.9-14.4,0-22.4-11.9-22.4-25.3,0-12.8,8.5-24.5,22-24.5,7,0,12.6,3.6,16.3,9.2h.2v-47.8h9V152.6h-9Zm.5-16.1c0-9.1-5.5-16.8-15.2-16.8-9.3,0-14.8,8.1-14.8,16.8,0,8.8,5.3,17,14.8,17C502.3,146.2,507.7,138.394,507.7,129.194Z"/><path class="cls-1" d="M571.2,143.994h22.9v8.6H561.8v-75.4h9.4Z"/><path class="cls-1" d="M607.9,105.792v25.9c0,7.5,1.9,14.1,10.8,14.1s10.8-6.6,10.8-14.1v-25.9h9v26.9c0,12.8-6,21.5-19.8,21.5s-19.8-8.7-19.8-21.5v-26.9Z"/><path class="cls-1" d="M658.1,123.393l17.6-17.6h11.9l-20,19.4,22,27.4H677.9l-16.7-21.3-3.1,3.1v18.2h-9V65.789h9Z"/><path class="cls-1" d="M740.5,129.293a25,25,0,1,1-25-24.9A24.613,24.613,0,0,1,740.5,129.293Zm-41,0a16,16,0,1,0,16-16.3A16.242,16.242,0,0,0,699.5,129.293Z"/><path class="cls-1" d="M767.5,116.493a6.929,6.929,0,0,0-6-4.1,4.852,4.852,0,0,0-4.9,4.6c0,4.1,5.4,5.9,10.9,8.4s10.8,5.9,10.8,13.3c0,8.9-7.4,15.5-16.1,15.5-6.8,0-13.7-3.9-16.2-10.5l7.7-3.5c1.9,3.5,4.2,6,8.5,6,3.8,0,7.1-2.6,7.1-6.6,0-2.5-1.2-3.7-3.3-5.1l-8.8-4.7c-5.2-2.8-9-5.4-9-11.8a13.659,13.659,0,0,1,13.8-13.6,13.924,13.924,0,0,1,12.8,8.2Z"/><path class="cls-1" d="M829,144.2v8.4h-47.9l31.7-38.4h-26.3v-8.4h43.8l-31.7,38.4Z"/><path class="cls-1" d="M841.993,130.694c.1,8,5.5,15.5,14.1,15.5,6.9,0,10.6-3.5,14-9.1l7.6,4.3a24.353,24.353,0,0,1-21.7,12.8c-14.3,0-23-10.8-23-24.6,0-14.4,7.7-25.2,22.8-25.2,14.9,0,21.9,11,21.9,24.9v1.4Zm26.7-6.8c-1.1-7-5.7-11.7-12.9-11.7-7,0-12.2,5-13.3,11.7Z"/><path class="cls-1" d="M894.992,123.393l17.6-17.6h11.9l-20,19.4,22,27.4h-11.7l-16.7-21.3-3.1,3.1v18.2h-9V65.789h9Z"/><path class="cls-1" d="M257.146,188.668v11.151H267.28v1.832H257.146v15.873h-1.954V186.836h12.373v1.832Z"/><path class="cls-1" d="M282.547,217.524h-1.954V186.836h1.954Z"/><path class="cls-1" d="M315.272,215.692v1.832H293.659l18.723-28.856H295.45v-1.832H315.8l-18.721,28.856Z"/><path class="cls-1" d="M329.2,186.836v30.118c0,3.826-.936,7-5.413,7a5.63,5.63,0,0,1-5.088-3.338l1.465-1.1a4.376,4.376,0,0,0,3.786,2.6c3.052,0,3.3-2.849,3.3-5.169V186.836Z"/><path class="cls-1" d="M373.112,202.18A15.914,15.914,0,1,1,357.2,186.43,15.982,15.982,0,0,1,373.112,202.18Zm-29.874,0A13.961,13.961,0,1,0,357.2,188.261,14.055,14.055,0,0,0,343.238,202.18Z"/><path class="cls-1" d="M390.008,217.524h-1.953V188.668h-7.936v-1.832h17.826v1.832h-7.937Z"/><path class="cls-1" d="M410.77,188.668v11.151h12.373v1.832H410.77v14.041h12.7v1.832H408.816V186.836h14.652v1.832Z"/><path class="cls-1" d="M451.962,217.524h-2.239l-10.011-14.53h-.977v14.53h-1.954V186.836h3.826c2.482,0,4.924.041,7,1.547a7.706,7.706,0,0,1,3.093,6.593c0,5.332-3.7,8.1-8.791,8.018Zm-10.745-16.361c1.913,0,3.826-.082,5.373-1.425a6.144,6.144,0,0,0,2.156-4.843,5.86,5.86,0,0,0-3.255-5.536c-1.628-.773-3.7-.691-5.494-.691h-1.262v12.5Z"/><path class="cls-1" d="M466.984,207.431l-4.112,10.093h-1.993l12.861-31.705,12.82,31.705h-2l-4.11-10.093Zm6.756-16.647L467.716,205.6h12.006Z"/><path class="cls-1" d="M499.345,217.524h-1.954V186.836H502.8c2.4,0,4.722.163,6.634,1.791a8.515,8.515,0,0,1,.2,12.373c-1.872,1.628-4.436,1.954-6.838,1.954h-3.459Zm3.541-16.4a7.4,7.4,0,0,0,5.372-1.669,6.015,6.015,0,0,0,1.994-4.6,6.117,6.117,0,0,0-2.319-4.965c-1.547-1.181-3.5-1.221-5.373-1.221h-3.215v12.454Z"/><path class="cls-1" d="M525.885,217.524h-1.954V186.836h1.954Z"/><path class="cls-1" d="M542.818,207.431l-4.111,10.093h-1.994l12.861-31.705,12.82,31.705H560.4l-4.111-10.093Zm6.756-16.647L543.551,205.6h12.006Z"/><path class="cls-1" d="M612.516,184.679,590.823,223.3l-1.506-.773,21.774-38.583Z"/><path class="cls-1" d="M671.529,202.18a15.915,15.915,0,1,1-15.914-15.75A15.983,15.983,0,0,1,671.529,202.18Zm-29.874,0a13.96,13.96,0,1,0,13.96-13.919A14.055,14.055,0,0,0,641.655,202.18Z"/><path class="cls-1" d="M697.827,191.884a7,7,0,0,0-6.227-3.623,5.767,5.767,0,0,0-5.779,5.861c0,3.215,3.052,4.558,5.534,5.738l5.862,3.053a6.7,6.7,0,0,1,3.5,6.1c0,5.087-4.64,8.913-9.605,8.913a9.477,9.477,0,0,1-9.036-6.594l1.709-.773c1.3,3.256,3.7,5.536,7.407,5.536a7.466,7.466,0,0,0,7.571-7.245c0-3.46-3.541-4.924-6.186-6.227l-5.536-2.93a6.149,6.149,0,0,1-3.174-5.5,7.5,7.5,0,0,1,7.855-7.773,8.6,8.6,0,0,1,7.488,4.314Z"/><path class="cls-1" d="M719.931,217.524h-1.953V188.668h-7.936v-1.832h17.826v1.832h-7.937Z"/><path class="cls-1" d="M740.692,188.668v11.151h12.373v1.832H740.692v14.041h12.7v1.832H738.738V186.836H753.39v1.832Z"/><path class="cls-1" d="M796.7,202.18a15.915,15.915,0,1,1-15.914-15.75A15.983,15.983,0,0,1,796.7,202.18Zm-29.874,0a13.96,13.96,0,1,0,13.96-13.919A14.055,14.055,0,0,0,766.825,202.18Z"/><path class="cls-1" d="M810.747,217.524h-1.954V186.836h5.413c2.4,0,4.722.163,6.634,1.791a8.516,8.516,0,0,1,.2,12.373c-1.872,1.628-4.436,1.954-6.837,1.954h-3.459Zm3.54-16.4a7.4,7.4,0,0,0,5.373-1.669,6.015,6.015,0,0,0,1.994-4.6,6.118,6.118,0,0,0-2.32-4.965c-1.546-1.181-3.5-1.221-5.372-1.221h-3.215v12.454Z"/><path class="cls-1" d="M835.089,207.431l-4.111,10.093h-1.994l12.861-31.705,12.82,31.705h-2l-4.11-10.093Zm6.756-16.647L835.821,205.6h12.007Z"/><path class="cls-1" d="M869.077,217.524h-1.953V188.668h-7.936v-1.832h17.826v1.832h-7.937Z"/><path class="cls-1" d="M889.838,217.524h-1.954V186.836h1.954Z"/><path class="cls-1" d="M904.737,207.431l-4.111,10.093h-1.994l12.861-31.705,12.82,31.705h-2l-4.11-10.093Zm6.756-16.647L905.469,205.6h12.007Z"/><polygon class="cls-1" points="157.848 205.983 200.018 205.983 200.018 217.593 144.808 217.593 144.808 183.473 110.688 183.473 110.688 90.493 123.718 90.493 123.718 171.863 144.808 171.863 144.808 103.523 157.848 103.523 157.848 205.983"/><path class="cls-1" d="M147.088,77.453h-36.4v-11.6h35.12c16.69,0,34.5,3.66,46.26,17.64,9.53,10.49,14.14,24.32,14.14,41.01,0,27.2-11.89,47.38-35.32,55.29v-13c14.62-7.34,22.13-22.26,22.13-41.81,0-13.67-3.66-25.75-11.44-34.33C174.108,82.7,163.138,77.453,147.088,77.453Z"/></svg>