<?xml version="1.0" encoding="UTF-8"?>
<svg xmlns="http://www.w3.org/2000/svg" xmlns:xlink="http://www.w3.org/1999/xlink" width="500pt" height="500pt" viewBox="0 0 500 500" version="1.1">
<g id="surface1">
<path style=" stroke:none;fill-rule:nonzero;fill:#ffffff;fill-opacity:1;" d="M 250 20 C 123.171875 20 20 123.171875 20 250 C 20 376.828125 123.171875 480 250 480 C 376.828125 480 480 376.828125 480 250 C 480 123.171875 376.828125 20 250 20 Z M 250 280 C 245.378906 280 241.050781 278.871094 237.140625 277 L 177.070313 337.070313 C 175.121094 339.019531 172.558594 340 170 340 C 167.441406 340 164.878906 339.019531 162.929688 337.070313 C 159.019531 333.160156 159.019531 326.839844 162.929688 322.929688 L 223 262.859375 C 221.128906 258.949219 220 254.621094 220 250 C 220 236.960938 228.371094 225.96875 240 221.839844 L 240 80 C 240 74.46875 244.46875 70 250 70 C 255.53125 70 260 74.46875 260 80 L 260 221.839844 C 271.628906 225.96875 280 236.960938 280 250 C 280 266.570313 266.570313 280 250 280 Z "/>
</g>
</svg>
